<?xml version="1.0" encoding="UTF-8"?>
<svg id="Layer_2" data-name="Layer 2" xmlns="http://www.w3.org/2000/svg" viewBox="0 0 170.86 247.61">
  <defs>
    
  </defs>
  <g id="Left">
    <g>
      <path class="cls-3" d="M55.48,233.73c0,1.21-.36,2.16-1.08,2.85-.72.7-1.6,1.04-2.65,1.04-.83,0-1.59-.22-2.27-.66.79-.73,1.19-1.76,1.19-3.07,0-1.06-.22-1.92-.65-2.58-.43-.7-1.06-1.04-1.89-1.04-.94,0-1.71.75-2.32,2.25-.58,1.46-.86,3.38-.86,5.76s.41,4.1,1.24,5.49c.86,1.35,2.07,2.03,3.62,2.03,1.08,0,2-.2,2.76-.6.79-.4,1.53-.99,2.22-1.76l.65.44c-.76,1.1-1.75,1.99-2.97,2.69-1.23.7-2.65,1.04-4.27,1.04-2.52,0-4.59-.86-6.22-2.58-1.62-1.72-2.43-3.93-2.43-6.64,0-2.89.85-5.2,2.54-6.91,1.69-1.72,3.95-2.58,6.76-2.58,1.98,0,3.59.46,4.81,1.37,1.22.88,1.84,2.03,1.84,3.46ZM64.45,234.85c-.72.44-1.58.66-2.57.66-.72,0-1.29-.22-1.7-.66-.41-.48-.62-1.13-.62-1.98,0-1.24.57-2.23,1.7-2.96,1.17-.77,2.67-1.15,4.53-1.15,2.19,0,3.91.51,5.14,1.54,1.27,1.02,1.9,2.41,1.9,4.17v9.49c0,1.02.34,1.54,1.03,1.54s1.29-.27,1.9-.82l.41.55c-1.27,1.5-2.78,2.25-4.53,2.25-1.03,0-1.82-.27-2.37-.82-.51-.55-.82-1.41-.93-2.58h-.21c-.55,1.06-1.29,1.9-2.21,2.52-.89.59-1.92.88-3.09.88-1.3,0-2.35-.42-3.14-1.26-.79-.88-1.18-2.01-1.18-3.4,0-1.57.7-2.82,2.11-3.73,1.41-.91,3.31-1.37,5.71-1.37.45,0,1.08.04,1.9.11v-2.74c0-1.79-.21-3.07-.62-3.84-.41-.81-1.08-1.21-2.01-1.21-.65,0-1.17.22-1.54.66-.38.44-.57,1.01-.57,1.7,0,1.1.31,1.92.93,2.47ZM64.72,244.87c2.13,0,3.19-1.96,3.19-5.87-1.8,0-3.15.31-4.05.93-.9.59-1.35,1.43-1.35,2.52,0,.73.2,1.32.59,1.76.4.44.94.66,1.62.66ZM89.34,228.93c1.15,0,2.09.35,2.81,1.04.72.66,1.08,1.52,1.08,2.58,0,.99-.29,1.79-.87,2.42-.58.59-1.33.88-2.27.88-.72,0-1.39-.15-2-.44.65-.55.97-1.37.97-2.47,0-.71-.21-1.21-.62-1.5-.08-.06-.18-.1-.27-.12-1-.22-1.82.66-2.46,2.66-.58,1.76-.87,3.95-.87,6.59,0,1.36.07,2.44.22,3.24.18.81.47,1.56.87,2.25l.43.55-.43.55h-7.82l-.32-.94.75-.17c.57-.15.95-.37,1.13-.66.18-.33.27-.96.27-1.88v-10.79c0-.7-.23-1.05-.7-1.05h-1.67l-.22-.61c.68-.63,1.53-1.14,2.53-1.55,1.04-.41,2.06-.61,3.07-.61.58,0,1.01.17,1.32.5.17.19.24.45.24.71v4.14s.16,0,.16,0c.76-3.55,2.31-5.33,4.65-5.33ZM115.61,245.34c-1.39,1.5-3.03,2.25-4.92,2.25-1.17,0-2.03-.24-2.6-.71-.56-.51-.94-1.34-1.13-2.47-.98,1.1-2,1.9-3.05,2.41-1.06.51-2.22.77-3.5.77-1.88,0-3.43-.8-4.63-2.41-1.17-1.61-1.75-3.69-1.75-6.26,0-3.07.83-5.51,2.49-7.3,1.66-1.83,3.92-2.74,6.78-2.74,1.32,0,2.52.29,3.62.88v-6.09c0-.51-.25-.77-.73-.77h-1.92l-.23-.55c.75-.66,1.71-1.17,2.88-1.54,1.17-.4,2.32-.6,3.45-.6.49,0,.89.11,1.19.33.3.18.45.46.45.82v22.61c0,1.1.36,1.65,1.07,1.65s1.41-.27,2.09-.82l.45.55ZM103.5,244.98c1.37,0,2.5-.77,3.41-2.3v-11.8c-.72-.37-1.51-.55-2.38-.55-3.03,0-4.54,2.65-4.54,7.96,0,2.16.29,3.82.86,4.99.61,1.13,1.5,1.7,2.65,1.7ZM122,232.63c0,.91.34,1.66,1.03,2.25.72.55,1.8,1.17,3.24,1.87,1.19.59,2.11,1.1,2.76,1.54.65.4,1.21.95,1.68,1.65.5.7.76,1.52.76,2.47,0,1.57-.74,2.83-2.22,3.79-1.44.95-3.39,1.43-5.84,1.43-1.84,0-3.35-.33-4.54-.99-1.19-.7-1.78-1.59-1.78-2.69,0-.73.27-1.34.81-1.81.54-.51,1.21-.77,2-.77.61,0,1.22.13,1.84.38-.61.48-.92,1.24-.92,2.31,0,.73.25,1.3.76,1.7.5.4,1.12.6,1.84.6.83,0,1.53-.22,2.11-.66.61-.44.92-1.06.92-1.87s-.31-1.37-.92-1.81c-.58-.48-1.5-1.02-2.76-1.65-1.15-.55-2.09-1.04-2.81-1.48-.68-.48-1.28-1.1-1.78-1.87-.5-.77-.76-1.7-.76-2.8,0-1.65.68-2.94,2.05-3.9,1.37-.95,3.1-1.43,5.19-1.43,1.84,0,3.33.35,4.49,1.04,1.19.7,1.78,1.59,1.78,2.69,0,.84-.25,1.46-.76,1.87-.5.4-1.15.6-1.95.6s-1.42-.16-2-.49c.65-.62.97-1.41.97-2.36,0-.62-.23-1.12-.7-1.48-.47-.4-1.08-.6-1.84-.6-.83,0-1.48.24-1.95.71s-.7,1.06-.7,1.76Z"></path>
      <path class="cls-6" d="M52.57,171.42c-1.83,0-3.15-.4-3.96-1.19-.81-.84-1.21-2.18-1.21-4.04v-14.03h-3.35c0-.75.04-1.24.13-1.46.09-.22.36-.4.81-.53,1.48-.4,2.64-1.01,3.49-1.85.85-.84,1.54-2.05,2.08-3.64.13-.49.36-.77.67-.86.31-.13,1.07-.2,2.28-.2v5.96h5.5c0,.57-.09,1.1-.27,1.59-.18.44-.42.77-.74.99h-4.49v14.89c0,1.32.56,1.99,1.68,1.99.49,0,1.03-.15,1.61-.46.63-.31,1.18-.73,1.68-1.26l.54.66c-1.92,2.3-4.07,3.44-6.44,3.44Z"></path>
      <path class="cls-6" d="M69.78,167.58c0,1.37.42,2.06,1.27,2.06s1.68-.34,2.48-1.03l.54.69c-1.65,1.87-3.6,2.81-5.83,2.81-1.61,0-2.77-.41-3.49-1.23-.72-.87-1.07-2.26-1.07-4.18v-13.58c0-.64-.29-.96-.87-.96h-2.08l-.2-.75c.89-.78,2.01-1.42,3.35-1.92,1.34-.5,2.68-.75,4.02-.75.64,0,1.16.2,1.54.59.23.23.33.57.33.9v17.37Z"></path>
      <path class="cls-6" d="M98.77,167.77c0,1.38.43,2.07,1.29,2.07s1.7-.34,2.51-1.03l.54.69c-1.67,1.88-3.64,2.82-5.9,2.82-1.63,0-2.8-.41-3.53-1.24-.68-.87-1.02-2.27-1.02-4.2v-10.32c0-2.64-.84-3.96-2.53-3.96s-2.99,1.11-4.04,3.34c-1,2.23-1.51,5.14-1.51,8.73,0,1.36.11,2.48.34,3.34.23.82.59,1.61,1.1,2.39l.55.68-.55.68h-9.93l-.41-1.16.96-.21c.73-.18,1.21-.45,1.44-.82.23-.41.34-1.18.34-2.32v-13.31c0-.86-.3-1.3-.89-1.3h-2.25l-.21-.75c.91-.78,2.05-1.42,3.42-1.92,1.37-.5,2.74-.75,4.11-.75.59,0,1.05.14,1.37.41.37.27.55.64.55,1.1v5.9c.64-2.15,1.78-3.93,3.42-5.35,1.64-1.46,3.38-2.19,5.2-2.19,1.96,0,3.38.64,4.24,1.92.91,1.28,1.37,3.31,1.37,6.1v10.64Z"></path>
      <path class="cls-6" d="M127.25,148.87v22.74c0,3.67-1.05,6.5-3.15,8.49-2.06,2.04-4.94,3.06-8.64,3.06-2.29,0-4.14-.44-5.55-1.32-1.42-.88-2.13-2.04-2.13-3.48,0-1.25.37-2.27,1.1-3.06.73-.74,1.69-1.11,2.88-1.11.87,0,1.71.19,2.54.56-.82.84-1.23,1.97-1.23,3.41,0,1.02.3,1.86.89,2.51.64.65,1.44.97,2.4.97,3.2,0,4.8-2.65,4.8-7.94v-8.85c-.59,1.74-1.64,3.18-3.14,4.32-1.46,1.1-3.03,1.65-4.71,1.65-2,0-3.48-.62-4.44-1.85-.96-1.23-1.43-3.11-1.43-5.62v-10.22c0-.64-.3-.96-.89-.96h-2.21l-.21-.75c.87-.78,2.01-1.42,3.43-1.92,1.42-.5,2.77-.75,4.05-.75.6,0,1.05.14,1.37.41.37.27.55.64.55,1.1v13.85c0,2.56.8,3.84,2.4,3.84s2.82-.94,3.78-2.81c.96-1.87,1.44-4.37,1.44-7.47,0-1.65-.14-2.99-.41-4.05-.27-1.05-.71-1.97-1.3-2.74l-.55-.75.48-.62,7.9-.62Z"></path>
      <path class="cls-5" d="M59.89,135.37c2.86-1.08,5.13,3.07,5.91,5.28,1.12-2.77,2.37-7.83,6.03-5.51,3.36,2.13-.27,9.86-6.03,10.57-4.23.52-9.49-8.99-5.91-10.34Z"></path>
      <path class="cls-6" d="M12.84,214.45c-2.16,0-3.85-.71-5.07-2.13-1.17-1.46-1.98-3.79-2.43-6.99l-1.42-9.87c-.05-.37-.14-.62-.27-.75-.14-.14-.34-.21-.61-.21h-1.82l-.2-.75c.9-.82,1.98-1.46,3.24-1.92,1.26-.5,2.5-.75,3.71-.75.68,0,1.15.21,1.42.62.32.41.56,1.21.74,2.4l1.76,12.34c.32,2.24.68,3.77,1.08,4.59.41.82,1.01,1.23,1.82,1.23,1.26,0,2.25-.78,2.97-2.33.77-1.6,1.15-3.7,1.15-6.31s-.34-5.37-1.01-8.16c-.09-.37-.18-.62-.27-.75-.09-.14-.29-.21-.61-.21h-1.76l-.2-.75c.86-.82,1.91-1.46,3.17-1.92,1.26-.5,2.52-.75,3.78-.75.63,0,1.1.23,1.42.69.32.41.54,1.19.68,2.33l1.69,12c.36,2.47.74,4.11,1.15,4.94.45.82.99,1.23,1.62,1.23,1.22,0,2.18-.91,2.9-2.74.77-1.87,1.15-4.3,1.15-7.27,0-2.01-.2-3.75-.61-5.21-.36-1.51-.97-2.83-1.82-3.98l-.54-.75.47-.55,5.67-.69c.14,1.78.2,3.36.2,4.73,0,5.85-.83,10.42-2.5,13.71-1.62,3.29-3.96,4.94-7.02,4.94-1.85,0-3.24-.48-4.19-1.44-.95-.96-1.73-2.72-2.36-5.28-.9,4.48-3.26,6.72-7.09,6.72Z"></path>
      <path class="cls-6" d="M48.42,209.93c0,1.37.42,2.06,1.27,2.06s1.68-.34,2.48-1.03l.54.69c-1.65,1.87-3.6,2.81-5.83,2.81-1.61,0-2.77-.41-3.49-1.23-.72-.87-1.07-2.26-1.07-4.18v-13.58c0-.64-.29-.96-.87-.96h-2.08l-.2-.75c.89-.78,2.01-1.42,3.35-1.92,1.34-.5,2.68-.75,4.02-.75.64,0,1.16.2,1.55.59.23.23.33.57.33.9v17.37Z"></path>
      <path class="cls-6" d="M61.16,195.59c0,1.14.43,2.08,1.28,2.81.9.69,2.25,1.46,4.05,2.33,1.49.73,2.63,1.37,3.44,1.92.81.5,1.51,1.19,2.09,2.06.63.87.95,1.9.95,3.09,0,1.97-.92,3.54-2.77,4.73-1.8,1.19-4.23,1.78-7.29,1.78-2.3,0-4.19-.41-5.67-1.23-1.49-.87-2.23-1.99-2.23-3.36,0-.91.34-1.67,1.01-2.26.68-.64,1.51-.96,2.5-.96.77,0,1.53.16,2.3.48-.77.59-1.15,1.55-1.15,2.88,0,.91.31,1.62.95,2.13.63.5,1.4.75,2.3.75,1.04,0,1.91-.27,2.63-.82.77-.55,1.15-1.33,1.15-2.33s-.38-1.71-1.15-2.26c-.72-.59-1.87-1.28-3.44-2.06-1.44-.69-2.61-1.3-3.51-1.85-.86-.59-1.6-1.37-2.23-2.33-.63-.96-.95-2.13-.95-3.5,0-2.06.86-3.68,2.57-4.87,1.71-1.19,3.87-1.78,6.48-1.78,2.3,0,4.16.43,5.61,1.3,1.49.87,2.23,1.99,2.23,3.36,0,1.05-.32,1.83-.95,2.33-.63.5-1.44.75-2.43.75s-1.78-.21-2.5-.62c.81-.78,1.22-1.76,1.22-2.95,0-.78-.29-1.39-.88-1.85-.59-.5-1.35-.75-2.3-.75-1.04,0-1.85.3-2.43.89-.59.59-.88,1.33-.88,2.19Z"></path>
      <path class="cls-6" d="M102.6,211.7c-1.67,1.87-3.64,2.81-5.9,2.81-1.4,0-2.44-.3-3.12-.89-.68-.64-1.13-1.67-1.36-3.09-1.18,1.37-2.4,2.38-3.66,3.02-1.27.64-2.67.96-4.2.96-2.26,0-4.11-1.01-5.56-3.02-1.4-2.01-2.1-4.62-2.1-7.82,0-3.84.99-6.88,2.98-9.12,1.99-2.29,4.7-3.43,8.14-3.43,1.58,0,3.03.37,4.34,1.1v-7.61c0-.64-.29-.96-.88-.96h-2.31l-.27-.69c.9-.82,2.06-1.46,3.46-1.92,1.4-.5,2.78-.75,4.14-.75.59,0,1.06.14,1.42.41.36.23.54.57.54,1.03v28.25c0,1.37.43,2.06,1.29,2.06s1.7-.34,2.51-1.03l.54.69ZM87.9,211.02c1.71,0,3.13-.96,4.25-2.88v-14.74c-.9-.46-1.89-.69-2.97-.69-3.78,0-5.67,3.31-5.67,9.94,0,2.7.36,4.78,1.08,6.24.77,1.42,1.87,2.13,3.31,2.13Z"></path>
      <path class="cls-6" d="M104.14,202.65c0-3.61,1.01-6.47,3.04-8.57,2.07-2.1,4.86-3.15,8.37-3.15s6.3,1.07,8.37,3.22c2.07,2.1,3.11,4.94,3.11,8.5s-1.04,6.4-3.11,8.5c-2.07,2.1-4.86,3.15-8.37,3.15s-6.3-1.05-8.37-3.15c-2.03-2.1-3.04-4.94-3.04-8.5ZM120.21,202.79c0-3.06-.43-5.55-1.28-7.47-.86-1.97-1.94-2.95-3.24-2.95-1.44,0-2.61.96-3.51,2.88-.9,1.87-1.35,4.34-1.35,7.41s.41,5.58,1.22,7.41c.86,1.83,1.98,2.74,3.38,2.74s2.54-.91,3.44-2.74c.9-1.87,1.35-4.3,1.35-7.27Z"></path>
      <path class="cls-6" d="M151.25,193.07c.86,1.16,1.31,3.01,1.36,5.56h0c.63-2.16,1.67-3.93,3.12-5.33,1.45-1.39,2.98-2.09,4.61-2.09,1.94,0,3.35.65,4.2,1.96.9,1.26,1.36,3.24,1.36,5.94v10.66c0,1.35.43,2.02,1.29,2.02s1.7-.34,2.51-1.01l.54.67c-1.67,1.84-3.64,2.77-5.9,2.77-1.67,0-2.85-.43-3.53-1.28-.68-.9-1.02-2.45-1.02-4.65v-9.71c0-2.61-.86-3.91-2.58-3.91-1.45,0-2.58,1.21-3.39,3.64-.81,2.38-1.22,5.15-1.22,8.3.04,1.39.16,2.5.34,3.31.23.81.59,1.6,1.09,2.36l.54.67-.54.67h-7.46v-15.29c0-2.65-.85-3.98-2.56-3.98-1.44,0-2.56,1.23-3.37,3.7-.81,2.42-1.21,5.23-1.21,8.43,0,1.42.09,2.54.27,3.36.22.82.61,1.62,1.15,2.4l.54.69-.54.69h-9.78l-.4-1.17.94-.21c.72-.18,1.19-.46,1.42-.82.23-.41.34-1.19.34-2.33v-13.06c0-.67-.29-1-.88-1h-2.17l-.2-.67c.9-.76,2.03-1.38,3.39-1.87,1.36-.49,2.71-.74,4.07-.74.59,0,1.04.13,1.36.4.36.22.54.56.54,1v5.49c.59-2.05,1.58-3.79,2.98-5.22,1.4-1.43,2.98-2.14,4.75-2.14,1.85,0,3.21.6,4.07,1.81Z"></path>
      <path class="cls-7" d="M39.3,178.4c2.86-1.08,5.13,3.07,5.91,5.28,1.12-2.77,2.37-7.83,6.03-5.51,3.36,2.13-.27,9.86-6.03,10.57-4.23.52-9.49-8.99-5.91-10.34Z"></path>
      <path class="cls-5" d="M60.97,8.35c5.12-.19,9.56,1.41,13.31,4.79,1.75,1.33,3.18,2.93,4.29,4.79,1.98,2.27,2.99,4.89,3.01,7.85-1.06-1.49-2.49-2.07-4.29-1.74.45,1.78,1.31,3.38,2.58,4.79-.21.15-.43.29-.64.44-2.16-.61-4.12-1.54-5.88-2.8l-.35-.25-.33-.18c-6.84-3.82-10.74-9.72-11.69-17.69ZM100.04,7.04c3.22-2.15,6.8-3.17,10.73-3.05.12,2.15-.17,4.18-.86,6.1-1.7,7.88-6.16,13.49-13.39,16.84l-.35.16c-1.08.54-2.23,1.05-3.43,1.53-.62.34-1.19.27-1.72-.22,1.9-3.74,4.62-6.72,8.16-8.93,1.54-.81,1.97-1.97,1.29-3.49-1.89-.42-3.61-.06-5.15,1.09l-.11.13c-.27.28-.6.51-.98.67l-.19.08c-2.2,2.15-3.99,4.62-5.37,7.41-.13-3.44.8-6.49,2.79-9.15l.19-.36c1.91-3.61,4.59-6.47,8.05-8.58l.35-.21ZM92.78,26.7c-.01.05-.02.11-.03.16h0c0-.05.02-.11.03-.16h0ZM93.1,26.16h0s0,0,0,0ZM94.16,25.56c-.08.06-.16.11-.24.17.13-.08.25-.17.36-.26l-.12.09ZM94.61,25.19h0s0,0,0,0ZM95,24.76h0s0,0,0,0ZM98.11,21.27h0s0,0,0,0ZM99.18,20.77h0s0,0,0,0ZM95.57,16.13s-.05.08-.07.12c.02-.04.04-.08.07-.12ZM98.8,15.31h0s0,0,0,0Z"></path>
      <path class="cls-1" d="M83.29,34.94c.57,6.76.57,13.59,0,20.48-.26-.05-.4-.2-.43-.44.43-6.61.57-13.29.43-20.05Z"></path>
      <path class="cls-7" d="M105.19,46.49c2.95-.82,5.96-1.18,9.02-1.09-1.12,10.2-6.42,17.1-15.89,20.7-8.07,3.67-9.08,2.5-3.01-3.49,2.4-2.05,5.04-3.72,7.94-5.01.29-.91.22-1.79-.21-2.61-2.83-.09-5.4.7-7.73,2.4-2.22,1.67-4.15,3.63-5.8,5.88.22-2.48,1.15-4.66,2.79-6.54l.29-.46c3.04-4.67,7.24-7.93,12.59-9.79ZM57.1,45.83c11.16-.21,19.25,4.73,24.26,14.82.36,1.01.5,2.03.43,3.05-2.67-3.36-5.89-6.04-9.66-8.06-1.25-.57-2.54-.72-3.86-.44-.77.47-.98,1.12-.64,1.96,2.83,1.91,5.62,3.87,8.37,5.88,1.53,1.33,2.82,2.86,3.86,4.58-9.62-.81-16.7-5.6-21.25-14.38-.98-2.37-1.48-4.84-1.5-7.41Z"></path>
      <path class="cls-2" d="M83.29,72.86c.57,8.5.57,17.07,0,25.72-.26-.05-.4-.2-.43-.44.43-8.35.57-16.78.43-25.28Z"></path>
      <path class="cls-8" d="M96.6,4.21c5.36-3.78,11.23-5.01,17.6-3.7.3.47.51.97.64,1.53.28,4.78-.37,9.43-1.93,13.95-5.08,10.79-13.53,16.75-25.33,17.87-.07,7.27,0,14.53.22,21.79,6.71-10.49,16.23-15.06,28.55-13.73,2.06,1.22,2.7,3.04,1.93,5.45-.64,5.22-2.57,9.87-5.8,13.95-.29.44-.57.87-.86,1.31-6.16,5.81-13.46,9.16-21.9,10.02h-2.15c-.07,8.72,0,17.44.22,26.15.31-.24.52-.53.64-.87,11.05-16.3,26.22-26.4,45.51-30.29,2.88-.3,5.75-.73,8.59-1.31,1.72-.29,3.44-.29,5.15,0,.61.2,1.12.57,1.5,1.09.21,2.61.29,5.23.21,7.85,6.87-1.15,9.45,1.75,7.73,8.72,4.66-2.36,8.74-1.63,12.24,2.18,2.16,3.92,1.94,7.7-.64,11.33-1.15,1.02-2.44,1.82-3.86,2.4-12.46,4.14-24.77,8.57-36.93,13.29-7.36,2.32-14.66,4.86-21.9,7.63-1.55.41-3.13.7-4.72.87-.7,1.5-1.56,2.88-2.58,4.14-1.64,1.77-3.51,3.23-5.58,4.36-10.09,3.56-17.97.8-23.62-8.28-4.24-.93-8.39-2.16-12.45-3.7-17.96-6.37-35.85-12.9-53.67-19.61-4.71-5.08-4.57-9.95.43-14.6.52-.19.95-.48,1.29-.87.99-.18,1.99-.33,3.01-.44,1.84.5,3.7.94,5.58,1.31-.07-2.33,0-4.65.21-6.97.54-.54.98-.99,1.52-1.53,1.99-.22,3.99-.29,6-.22-.07-2.47,0-4.94.21-7.41.52-.67,1.17-1.18,1.93-1.53,17.12.49,32.43,6.01,45.94,16.56,5.17,4.59,9.6,9.74,13.31,15.47.03.24.17.38.43.44.57-8.64.57-17.21,0-25.72-9.17-.51-17.04-4-23.62-10.46-3.79-4.36-6.08-9.44-6.87-15.25-.07-1.46,0-2.91.21-4.36,11.27-2.72,20.72.48,28.34,9.59.6.82,1.1,1.69,1.5,2.62.03.24.17.38.43.44.57-6.9.57-13.73,0-20.48-.03-.54-.32-.91-.86-1.09-8.06-1-14.79-4.56-20.18-10.68-2.17-3.19-3.82-6.67-4.94-10.46-.54-2.3-.69-4.63-.43-6.97,9.74-2.52,17.89.24,24.48,8.28,1.22,1.89,2.43,3.78,3.65,5.67,2.26-6.5,6.13-11.73,11.59-15.69ZM28.33,70.68c-.76-.42-1.62-.56-2.58-.44-.14,1.83,0,3.57.43,5.23,11,1.23,21.16,4.79,30.49,10.68,2.35,1.7,2.28,3.22-.22,4.58-9.86-6.46-20.67-10.09-32.42-10.9-2.06-.43-4.21-.58-6.44-.44-.14,2.05,0,4.09.43,6.1,1.81.76,3.67,1.34,5.58,1.74,9.61,3.71,19.34,7.2,29.2,10.46,9.74,3.88,19.62,7.51,29.63,10.9.14-.15.29-.29.43-.44-.5-1.25-1.07-2.41-1.72-3.49-.7-2-1.63-3.89-2.79-5.67-12.38-17.08-29.05-26.52-50.02-28.33ZM145.46,70.2c-1.1-.13-2.1.01-3.01.44-11.31,1.01-21.76,4.5-31.34,10.46l-.5.3c-10.36,6.4-17.92,15.3-22.69,26.72.37.47.8.54,1.29.22,4.61-1.87,9.19-3.69,13.74-5.45l3.13-1.12c15.65-5.59,31.35-11.03,47.11-16.31v-6.1h-5.15c-2.11-.06-4.11.23-6.01.87-9.58,1.33-18.45,4.6-26.62,9.81-2.4.83-3.33.03-2.79-2.4.68-.69,1.37-1.33,2.06-1.93l.3-.25.87-.52c9.02-5.29,18.75-8.46,29.19-9.51.42-1.65.57-3.4.43-5.23ZM71.7,104.02c1.43.29,2.86.58,4.29.87h0c-1.43-.29-2.86-.58-4.29-.87h0Z"></path>
      <path class="cls-4" d="M4.93,88.55c.97-1.58,2.33-2.09,4.08-1.53,21.96,7.34,43.71,15.14,65.25,23.4l4.31,1.66c2.53.93,5.11,1.59,7.73,1.96,25.29-9.65,50.77-18.73,76.43-27.24,3.28.69,4.49,2.72,3.65,6.1-.5,1.09-1.29,1.89-2.36,2.4-20.12,7.12-40.23,14.31-60.33,21.57-.63-.64-1.28-1.3-1.93-1.96-.85-.22-1.71-.29-2.58-.22-2.05,9.26-7.77,13.25-17.18,11.99-1.75-.51-3.32-1.31-4.72-2.4-2.9-2.48-4.76-5.6-5.58-9.37-.86-.29-1.72-.29-2.58,0-.65.66-1.3,1.32-1.93,1.96-19.77-7.12-39.59-14.17-59.47-21.14-3.14-1.51-4.07-3.91-2.79-7.19ZM85.41,115.27l.89.3c-.6-.2-1.19-.41-1.78-.62.3.1.59.21.89.31ZM79.21,112.91h0,0Z"></path>
      <path class="cls-5" d="M59.99,8.15c5.32-.19,9.93,1.46,13.82,4.96,1.7,1.3,3.11,2.83,4.24,4.61l.22.36.19.22c1.93,2.3,2.91,4.94,2.93,7.9-1.1-1.54-2.59-2.14-4.46-1.81.47,1.84,1.36,3.5,2.68,4.96-.22.15-.45.3-.67.45-2.39-.67-4.55-1.73-6.46-3.16-7.31-3.95-11.47-10.12-12.48-18.5ZM100.56,6.79c3.34-2.23,7.06-3.28,11.15-3.16.12,2.23-.18,4.33-.89,6.32-1.79,8.29-6.55,14.15-14.27,17.6l-.43.21c-1,.48-2.05.94-3.14,1.37-.64.35-1.24.28-1.78-.23,1.97-3.88,4.8-6.96,8.47-9.25,1.59-.84,2.04-2.04,1.34-3.61-1.96-.44-3.74-.06-5.35,1.13,0-.09,0-.17.02-.25l.02-.12c-.02.12-.03.24-.03.37-.35.41-.8.71-1.34.9-2.29,2.22-4.15,4.78-5.57,7.67-.14-3.56.83-6.72,2.9-9.48l.19-.38c2.05-3.86,4.96-6.89,8.72-9.1ZM93.13,26.81c-.02.05-.04.11-.06.16.02-.05.04-.11.06-.16ZM93.51,26.52h0,0ZM94.34,26.06c-.13.09-.26.17-.4.25.14-.08.27-.16.4-.25ZM95.9,24.25c-.05.09-.09.18-.14.27.05-.09.1-.18.14-.27ZM97.92,22.03h0,0ZM95.75,16.58h0s0,0,0,0ZM96.94,15.52c-.13.02-.26.05-.39.08.13-.03.26-.05.39-.08ZM98.89,15.34c.13,0,.26,0,.39,0-.13,0-.26,0-.39,0Z"></path>
      <path class="cls-7" d="M105.91,45.96c3.07-.85,6.19-1.23,9.36-1.13-1.17,10.56-6.67,17.71-16.5,21.44-8.38,3.8-9.42,2.59-3.12-3.61,2.49-2.13,5.24-3.86,8.25-5.19.3-.95.23-1.85-.22-2.71-2.93-.1-5.61.73-8.03,2.48-2.3,1.73-4.31,3.76-6.02,6.09.23-2.57,1.2-4.83,2.9-6.77,3.18-5.09,7.64-8.63,13.38-10.61ZM55.98,45.29c11.59-.22,19.99,4.89,25.19,15.34.37,1.05.52,2.1.45,3.16-2.78-3.47-6.12-6.26-10.03-8.35-1.3-.59-2.63-.75-4.01-.45-.79.48-1.02,1.16-.67,2.03,2.94,1.98,5.83,4.01,8.69,6.09,1.59,1.38,2.93,2.96,4.01,4.74-9.99-.84-17.34-5.8-22.07-14.89-1.01-2.45-1.53-5.01-1.56-7.67ZM94.7,57.15h0,0ZM95.44,56.63h0,0ZM99.42,54.5c-.13.02-.26.04-.39.07.13-.02.26-.05.39-.07ZM100.6,54.39h0,0Z"></path>
    </g>
  </g>
</svg>